<svg xmlns="http://www.w3.org/2000/svg" width="218" height="47" viewBox="58 0 218 47"><path fill="#fff" d="M61.4 33.5v8.4c0 1.4.5 3.4 2.9 3.4 2.3 0 3.1-1.6 3.1-3.6l-.1-8.3c0-.5-.3-.7-.5-.9h2.3c-.3.1-.5.5-.5.9l-.1 8.2c0 3.4-2 4.8-4.5 4.8-2.2 0-5.1-1-5.1-4.6v-8.3c0-.5-.3-.7-.6-.9H62c-.3.2-.6.4-.6.9zm32.3 0c0-.5-.2-.7-.5-.9h2.1c-.3.1-.5.5-.5.9v13.4s-9.2-11.4-9.2-11.6v10.1c0 .5.2.7.5.9H84c.3-.2.5-.5.5-.9V34.6c0-.8 0-.8-.3-1.2-.2-.3-.5-.5-.8-.8h3.3l7 8.9v-8zm20.2-.9c-.3.2-.5.5-.5.9v11.9c0 .5.2.7.5.9h-3.5c.3-.2.5-.5.5-.9V33.5c0-.5-.2-.7-.5-.9h3.5zm23.3 1c.2-.5.1-.8-.4-1h2.3c-.5.3-.5.5-.7 1-.3.8-5 13.2-5 13.2s-5-12.4-5.4-13.2c-.3-.4-.5-.7-1-1h4.2c-.5.2-.5.7-.4 1.1.1.2 3.2 8.5 3.2 8.5s3.2-8.4 3.2-8.6zm23.3.7c-.4-.5-.8-.7-1.5-.7-.6-.1-3.3-.1-3.3-.1v4.6h2.9c.3 0 .6-.3.7-.6v2.2c-.1-.3-.4-.6-.7-.6h-2.9V45c.4.1 1.6.1 2.5.1 1.6-.1 2.4 0 3.1-1.2l-.4 2.3h-8.2c.3-.2.6-.4.6-.9V33.5c0-.5-.3-.7-.6-.9h7.7l.1 1.7zm20.9 5.1c1.3.1 1.9 1 2.2 1.5 0 0 2.3 3.9 2.9 4.6.4.5 1.2.8 1.2.8l-2.5.1c-.7 0-1.4-.5-1.7-1-.8-1.2-1.7-2.7-2.4-3.9-.5-.8-.9-1.7-1.8-1.7-.3 0-.8.1-.8.1v5.5c0 .5.2.7.5.9h-3.5c.3-.2.5-.5.5-.9V33.5c0-.5-.2-.7-.5-.9h4.1c4 0 4.8 2 4.8 3.4.2 2.1-1.7 3.2-3 3.4zm-2.8-5.8v5.3s.5.1.8.1c1.3 0 2.7-.8 2.7-2.8 0-.9-.5-2.5-2.4-2.5-.6-.1-1.1-.1-1.1-.1zm30.1 8.6c0 2.5-2.1 4.2-4.4 4.2-1.8 0-3-.7-3.7-1l-.1-3.4c.4 1.4 1.5 3.3 3.5 3.3 1.9 0 2.5-1.4 2.5-2.4 0-2-1.6-2.2-3.4-3.2-1.8-1-2.5-2.1-2.5-3.7 0-2.7 2.4-3.9 4.2-3.9.7 0 1.9.1 2.9.7l.1 3c-.3-1-1.4-2.7-3.2-2.7-1.4 0-2 1-2 2 0 1.2.8 1.7 2.6 2.5 1.6 1.2 3.5 1.8 3.5 4.6zm18.3-9.6c-.3.1-.5.5-.5.9v11.9c0 .5.2.7.5.9h-3.5c.3-.2.5-.5.5-.9V33.5c0-.5-.2-.7-.5-.9h3.5zm20.8 1v11.8c0 .5.2.7.5.9h-3.4c.3-.2.5-.5.5-.9V33.6c-1.4 0-3.1.1-3.1.1-.5 0-.8.5-1 .8v-2h10.4v2c-.2-.3-.5-.8-.9-.8.1.1-1.6-.1-3-.1zm28.2-1c-.6.2-1 .8-1.2 1.2l-3.1 6.1v5.4c0 .5.4.7.7.9h-3.9c.3-.2.7-.4.7-.9V40l-3.7-6.5c-.3-.5-.5-.7-1-1h4.3c-.5.2-.8.3-.3 1.2l2.7 5 2.5-5.2c.3-.5.1-.8-.4-1 0 .1 2.7.1 2.7.1zM73.1 1h4.5c-.5.3-.7.7-.7 1.3v16.5c0 .6.3 1 .7 1.2h-4.8c.5-.3.7-.7.7-1.2V4.7c0-.3.1-.7.1-.7l-.3.7L67 20.4 60.6 5.2l-.2-.8v14.4c0 .6.3 1 .7 1.2h-2.9c.4-.3.7-.7.7-1.2V2.3c0-.5-.5-1-.8-1.2h4.7l5.3 12.8c0-.1 5-12.9 5-12.9zm13.6 0c-.5.3-.7.7-.7 1.3v16.5c0 .6.3 1 .7 1.2H82c.5-.3.7-.7.7-1.2V2.3c0-.7-.3-1-.7-1.2l4.7-.1zm20.4 5.5c-1.6-3.9-4.7-4.3-6-4.3-4.6 0-7.1 3.5-7.1 8 0 3.9 1.8 8.6 7.3 8.6 1.2 0 4.2-.5 6-4.3.1-.1-.3 4-.3 4-2.2 1.3-4.6 1.8-6.7 1.8-5.2 0-9.9-3.8-9.9-9.7 0-4.9 3.5-9.9 10.2-9.9 2.2 0 4.2.5 6.3 1.4-.1.1.2 4.5.2 4.4zM122.6 1h4.8c-.5.2-.7.6-.7 1.2v16.5c0 .6.3 1 .7 1.2h-4.8c.5-.3.7-.7.7-1.2v-8.6H115v8.6c0 .6.3 1 .7 1.2h-4.8c.5-.3.7-.7.7-1.2V2.3c0-.7-.3-1-.7-1.2h4.8c-.5.2-.7.6-.7 1.2v6.6h8.2V2.3c.1-.7-.1-1.1-.6-1.3zm13.9 0c-.5.2-.7.6-.7 1.2v16.5c0 .6.3 1 .7 1.2h-4.8c.5-.3.7-.7.7-1.2V2.3c0-.7-.3-1-.7-1.2l4.8-.1zm20.2 1.2l.2 4.4c-1.4-3.8-4.7-4.4-5.9-4.4-4.5 0-7.1 3.5-7.1 8 0 3.9 1.8 8.6 7.3 8.6.6 0 2.2-.1 3.4-.9V13c0-.7-.3-1-.7-1.3h4.8c-.4.3-.7.7-.7 1.3v4.1c0 .6.3 1 .4 1.2-2.2 1.3-6 2-8.1 2-5.3 0-9.9-3.8-9.9-9.7 0-4.9 3.5-9.9 10.2-9.9 2 0 4 .5 6.1 1.5zm19.4 16.5c.3.6.5.9 1.3 1.4h-5.7c.7-.4.8-.8.7-1.4-.1-.3-.8-2-1.5-3.9h-6.5c-.8 1.9-1.4 3.5-1.5 3.9-.3.7-.1 1 .6 1.4h-3.6c.7-.5 1-.8 1.2-1.4.5-1 7.5-18.2 7.5-18.2s7 17.1 7.5 18.2zm-5.8-5.4c-1.2-3.1-2.7-6.9-2.7-6.9s-1.8 4.8-2.7 6.9h5.4zm22.2-11c0-.7-.3-1-.7-1.2h2.9c-.4.2-.7.6-.7 1.2v18.5S181.3 4.9 181.3 4.7v14c0 .6.3 1 .7 1.2h-3c.4-.3.7-.7.7-1.2V3.9c0-1.1 0-1.1-.5-1.8-.3-.3-.7-.7-1.2-1h4.6l9.8 12.3c.1 0 .1-11.1.1-11.1zm24 12.1c0 3.5-2.9 5.9-6.2 5.9-2.4 0-4.2-.8-5.1-1.4l-.1-4.7c.5 2 2.1 4.6 4.8 4.6 2.6 0 3.4-2 3.4-3.3 0-2.7-2.3-3.1-4.7-4.4-2.4-1.4-3.5-2.9-3.5-5.1 0-3.8 3.4-5.3 5.8-5.3.9 0 2.7.2 4 1l.1 4.1c-.4-1.5-1.9-3.7-4.4-3.7-2 0-2.8 1.5-2.8 2.7 0 1.7 1.1 2.3 3.7 3.5 2.4 1.3 5 2.2 5 6.1zm10.5-12v16.4c0 .6.3 1 .7 1.2H223c.4-.3.7-.7.7-1.2V2.4c-2 0-4.2.2-4.2.2-.7 0-1.1.7-1.3 1.1V1h14.6v2.7c-.3-.5-.6-1-1.2-1.1-.2 0-2.7-.2-4.6-.2zm19.4 16.3c.3.6.5.9 1.3 1.4H242c.7-.4.8-.8.7-1.4-.1-.3-.8-2-1.5-3.9h-6.5c-.8 1.9-1.4 3.5-1.5 3.9-.3.7-.1 1 .6 1.4h-3.7c.7-.5 1-.8 1.2-1.4.5-1 7.5-18.2 7.5-18.2s7.2 17.1 7.6 18.2zm-5.8-5.4c-1.2-3.1-2.7-6.9-2.7-6.9s-1.8 4.8-2.7 6.9h5.4zm14.1-10.9v16.4c0 .6.3 1 .7 1.2h-4.8c.5-.3.7-.7.7-1.2V2.4c-2 0-4.2.2-4.2.2-.7 0-1.1.7-1.3 1.1V1h14.5v2.7c-.3-.5-.6-1-1.2-1.1 0 0-2.4-.2-4.4-.2zm19.2 1.1c-.5-.7-1-1-2.1-1-.8-.1-4.5-.1-4.5-.1v6.5h4c.4 0 .8-.5 1-.8V11c-.1-.4-.6-.8-1-.8h-4v8.2c.5.1 2.2.2 3.5.1 2.3-.1 3.4 0 4.4-1.8l-.6 3.2h-11.4c.5-.3.8-.6.8-1.2V2.3c0-.7-.4-1-.8-1.2h10.6l.1 2.4zM58 24.9h217.6v1.5H58v-1.5z"/></svg>